<?xml version="1.0" encoding="UTF-8" standalone="no"?>
<!-- Created with Inkscape (http://www.inkscape.org/) -->

<svg
   xmlns:dc="http://purl.org/dc/elements/1.1/"
   xmlns:cc="http://creativecommons.org/ns#"
   xmlns:rdf="http://www.w3.org/1999/02/22-rdf-syntax-ns#"
   xmlns:svg="http://www.w3.org/2000/svg"
   xmlns="http://www.w3.org/2000/svg"
   xmlns:sodipodi="http://sodipodi.sourceforge.net/DTD/sodipodi-0.dtd"
   xmlns:inkscape="http://www.inkscape.org/namespaces/inkscape"
   width="744.09448819"
   height="1052.3622047"
   id="svg2"
   version="1.1"
   inkscape:version="0.48.1 r9760"
   sodipodi:docname="bitcoin-sign-20110719.svg"
   inkscape:export-xdpi="72"
   inkscape:export-ydpi="72">
  <title
     id="title2988">BITCOIN SIGN</title>
  <defs
     id="defs4" />
  <sodipodi:namedview
     id="base"
     pagecolor="#ffffff"
     bordercolor="#666666"
     borderopacity="1.0"
     inkscape:pageopacity="0.0"
     inkscape:pageshadow="2"
     inkscape:zoom="0.58249908"
     inkscape:cx="372.04724"
     inkscape:cy="526.18109"
     inkscape:document-units="px"
     inkscape:current-layer="layer1"
     showgrid="false"
     inkscape:window-width="1280"
     inkscape:window-height="747"
     inkscape:window-x="0"
     inkscape:window-y="0"
     inkscape:window-maximized="1"
     inkscape:showpageshadow="false"
     borderlayer="true"
     showguides="true"
     inkscape:guide-bbox="true">
    <inkscape:grid
       type="xygrid"
       id="grid2985" />
    <sodipodi:guide
       orientation="0,1"
       position="72.047784,185.91979"
       id="guide2987" />
    <sodipodi:guide
       orientation="1,0"
       position="72.047784,185.91979"
       id="guide2989" />
  </sodipodi:namedview>
  <metadata
     id="metadata7">
    <rdf:RDF>
      <cc:Work
         rdf:about="">
        <dc:format>image/svg+xml</dc:format>
        <dc:type
           rdf:resource="http://purl.org/dc/dcmitype/StillImage" />
        <dc:title>BITCOIN SIGN</dc:title>
        <dc:date>2011-07-19</dc:date>
        <dc:creator>
          <cc:Agent>
            <dc:title>Pander</dc:title>
          </cc:Agent>
        </dc:creator>
        <dc:publisher>
          <cc:Agent>
            <dc:title>Bitcoin</dc:title>
          </cc:Agent>
        </dc:publisher>
        <dc:subject>
          <rdf:Bag>
            <rdf:li>unicode</rdf:li>
            <rdf:li>bitcoin</rdf:li>
            <rdf:li>sign</rdf:li>
            <rdf:li>symbol</rdf:li>
            <rdf:li>currency</rdf:li>
          </rdf:Bag>
        </dc:subject>
        <dc:description>Character shape for character code request at Unicode Consortium that is proposed for Currency Symbols range 20A0 - 20CF</dc:description>
        <cc:license
           rdf:resource="http://creativecommons.org/licenses/publicdomain/" />
      </cc:Work>
      <cc:License
         rdf:about="http://creativecommons.org/licenses/publicdomain/">
        <cc:permits
           rdf:resource="http://creativecommons.org/ns#Reproduction" />
        <cc:permits
           rdf:resource="http://creativecommons.org/ns#Distribution" />
        <cc:permits
           rdf:resource="http://creativecommons.org/ns#DerivativeWorks" />
      </cc:License>
    </rdf:RDF>
  </metadata>
  <g
     inkscape:label="Layer 1"
     inkscape:groupmode="layer"
     id="layer1">
    <path
       style="font-size:1121.49536133px;font-style:normal;font-variant:normal;font-weight:normal;font-stretch:normal;line-height:125%;letter-spacing:0px;word-spacing:0px;fill:#000000;fill-opacity:1;stroke:none;font-family:FreeSerif;-inkscape-font-specification:FreeSerif"
       inkscape:connector-curvature="0"
       id="path3022"
       d="m 209.86028,40.567393 0,136.312497 -137.812496,0 0,19.78125 c 87.499906,5.20833 99.999996,16.66675 99.999996,93.75 l 0,462.5 c 0,77.08326 -13.54175,90.625 -99.999996,93.75 l 0,19.78125 137.812496,0 0,145.34371 68.40625,0 0,-145.34371 60.6875,0 0,145.34371 68.40625,0 0,-145.34371 12.59375,0 c 202.08312,0 252.09375,-112.50008 252.09375,-187.5 0,-135.41652 -136.45838,-164.58335 -178.125,-175 36.45829,-9.37499 142.6875,-30.20845 142.6875,-150 0,-106.83909 -77.755,-166.48726 -229.25,-175.78125 l 0,-137.593747 -68.40625,0 0,136.312497 -60.6875,0 0,-136.312497 -68.40625,0 z m 91.34375,174.843747 45.84375,0 c 119.79154,0 183.3125,50.01051 183.3125,142.71875 0,81.24992 -55.20843,127.0625 -153.125,127.0625 l -98.9375,0 0,-238.53125 c 0,-21.87498 7.28127,-31.25 22.90625,-31.25 z m -22.90625,311.46875 c 138.54152,0 273.9375,6.25015 273.9375,153.125 0,122.91654 -94.77095,147.90625 -208.3125,147.90625 -51.04161,0 -65.625,-9.38545 -65.625,-42.71875 l 0,-258.3125 z" />
    <g
       style="font-size:1041.66662598px;font-style:normal;font-variant:normal;font-weight:normal;font-stretch:normal;line-height:125%;letter-spacing:0px;word-spacing:0px;fill:#000000;fill-opacity:1;stroke:none;font-family:FreeSerif;-inkscape-font-specification:FreeSerif"
       id="text3024" />
  </g>
</svg>
